<svg width="30" height="30" viewBox="0 0 30 30" fill="none" xmlns="http://www.w3.org/2000/svg">
<path d="M12.425 15.325C12.3669 15.2131 12.2757 15.1218 12.1639 15.0637C12.052 15.0055 11.925 14.9833 11.8 15L3.12499 16.0875C2.96012 16.1094 2.81033 16.1948 2.70757 16.3256C2.60482 16.4564 2.55724 16.6221 2.57499 16.7875C2.85581 19.1466 4.03833 21.3056 5.87499 22.8125C5.93688 22.8661 6.00888 22.9068 6.08675 22.9321C6.16461 22.9574 6.24676 22.9668 6.32833 22.9598C6.40991 22.9528 6.48925 22.9295 6.56168 22.8914C6.6341 22.8532 6.69814 22.8009 6.74999 22.7375L12.35 16.025C12.4346 15.9311 12.4875 15.8129 12.5009 15.6872C12.5144 15.5614 12.4878 15.4347 12.425 15.325ZM4.44999 14.8375H4.52499L13.2 13.75C13.3514 13.729 13.4902 13.6544 13.5911 13.5397C13.6921 13.425 13.7484 13.2778 13.75 13.125V4.375C13.75 4.20924 13.6841 4.05027 13.5669 3.93306C13.4497 3.81585 13.2908 3.75 13.125 3.75C10.6386 3.75 8.25402 4.73772 6.49587 6.49587C4.73771 8.25403 3.74999 10.6386 3.74999 13.125C3.74928 13.5179 3.77434 13.9104 3.82499 14.3C3.84867 14.4491 3.92448 14.5849 4.03893 14.6834C4.15338 14.7818 4.29904 14.8364 4.44999 14.8375Z" fill="#ABB9CA"/>
<path d="M27.3125 22.6875L24.15 19.5125C24.804 18.0851 25.0886 16.5162 24.9775 14.95C24.8664 13.3839 24.3632 11.8708 23.5142 10.55C22.6653 9.22926 21.4978 8.14321 20.1191 7.3918C18.7405 6.64039 17.1951 6.24775 15.625 6.25001C15.4592 6.25001 15.3003 6.31586 15.1831 6.43307C15.0658 6.55028 15 6.70925 15 6.87501V15.4L9.54999 21.9375C9.49639 21.9994 9.45573 22.0714 9.43043 22.1493C9.40513 22.2271 9.3957 22.3093 9.40269 22.3908C9.40968 22.4724 9.43296 22.5518 9.47114 22.6242C9.50932 22.6966 9.56164 22.7607 9.62499 22.8125C11.2155 24.1506 13.208 24.9181 15.2852 24.9929C17.3624 25.0676 19.4049 24.4453 21.0875 23.225L23.9375 26.0625C23.9936 26.1223 24.0614 26.17 24.1366 26.2025C24.2119 26.2351 24.293 26.2519 24.375 26.2519C24.457 26.2519 24.5381 26.2351 24.6134 26.2025C24.6886 26.17 24.7564 26.1223 24.8125 26.0625L27.3125 23.5625C27.3723 23.5064 27.4199 23.4386 27.4525 23.3634C27.4851 23.2881 27.5019 23.207 27.5019 23.125C27.5019 23.043 27.4851 22.9619 27.4525 22.8866C27.4199 22.8114 27.3723 22.7436 27.3125 22.6875ZM18.375 21.9375C17.5055 22.3081 16.5702 22.4994 15.625 22.5C15.4592 22.5 15.3003 22.4342 15.1831 22.317C15.0658 22.1997 15 22.0408 15 21.875C15 21.7092 15.0658 21.5503 15.1831 21.4331C15.3003 21.3159 15.4592 21.25 15.625 21.25C16.399 21.2537 17.1652 21.0962 17.875 20.7875C17.9505 20.7547 18.0317 20.737 18.1141 20.7356C18.1964 20.7342 18.2782 20.749 18.3548 20.7791C18.4314 20.8093 18.5013 20.8543 18.5606 20.9115C18.6198 20.9687 18.6672 21.037 18.7 21.1125C18.7328 21.188 18.7505 21.2693 18.7519 21.3516C18.7533 21.4339 18.7385 21.5157 18.7084 21.5923C18.6782 21.6689 18.6332 21.7388 18.576 21.7981C18.5188 21.8573 18.4505 21.9047 18.375 21.9375ZM21.125 19.75C21.0661 19.8269 20.9905 19.8894 20.9039 19.9327C20.8172 19.9761 20.7219 19.9991 20.625 20C20.4893 20.0029 20.3568 19.9587 20.25 19.875C20.1174 19.7756 20.0297 19.6275 20.0063 19.4634C19.9828 19.2993 20.0255 19.1326 20.125 19C20.861 18.0294 21.2564 16.8431 21.25 15.625C21.2481 14.7521 21.0439 13.8915 20.6535 13.1107C20.2631 12.33 19.6972 11.6503 19 11.125C18.8674 11.0256 18.7797 10.8775 18.7563 10.7134C18.7328 10.5493 18.7755 10.3826 18.875 10.25C18.9745 10.1174 19.1225 10.0297 19.2866 10.0063C19.4507 9.98285 19.6174 10.0256 19.75 10.125C20.6017 10.7674 21.2932 11.5982 21.7702 12.5524C22.2473 13.5066 22.4971 14.5582 22.5 15.625C22.5083 17.1139 22.0249 18.5639 21.125 19.75Z" fill="#ABB9CA"/>
</svg>
