<svg width="25" height="25" viewBox="0 0 25 25" fill="none" xmlns="http://www.w3.org/2000/svg">
<g clip-path="url(#clip0_155_146)">
<path d="M0 12.5C0 9.18479 1.31696 6.00537 3.66117 3.66117C6.00537 1.31696 9.18479 0 12.5 0C15.8152 0 18.9946 1.31696 21.3388 3.66117C23.683 6.00537 25 9.18479 25 12.5C25 15.8152 23.683 18.9946 21.3388 21.3388C18.9946 23.683 15.8152 25 12.5 25C9.18479 25 6.00537 23.683 3.66117 21.3388C1.31696 18.9946 0 15.8152 0 12.5ZM15.625 17.1875C15.625 15.874 14.8193 14.751 13.6719 14.292V4.29688C13.6719 3.64746 13.1494 3.125 12.5 3.125C11.8506 3.125 11.3281 3.64746 11.3281 4.29688V14.292C10.1807 14.7559 9.375 15.8789 9.375 17.1875C9.375 18.9111 10.7764 20.3125 12.5 20.3125C14.2236 20.3125 15.625 18.9111 15.625 17.1875ZM7.03125 8.59375C7.44565 8.59375 7.84308 8.42913 8.1361 8.1361C8.42913 7.84308 8.59375 7.44565 8.59375 7.03125C8.59375 6.61685 8.42913 6.21942 8.1361 5.9264C7.84308 5.63337 7.44565 5.46875 7.03125 5.46875C6.61685 5.46875 6.21942 5.63337 5.9264 5.9264C5.63337 6.21942 5.46875 6.61685 5.46875 7.03125C5.46875 7.44565 5.63337 7.84308 5.9264 8.1361C6.21942 8.42913 6.61685 8.59375 7.03125 8.59375ZM6.25 12.5C6.25 12.0856 6.08538 11.6882 5.79235 11.3951C5.49933 11.1021 5.1019 10.9375 4.6875 10.9375C4.2731 10.9375 3.87567 11.1021 3.58265 11.3951C3.28962 11.6882 3.125 12.0856 3.125 12.5C3.125 12.9144 3.28962 13.3118 3.58265 13.6049C3.87567 13.8979 4.2731 14.0625 4.6875 14.0625C5.1019 14.0625 5.49933 13.8979 5.79235 13.6049C6.08538 13.3118 6.25 12.9144 6.25 12.5ZM20.3125 14.0625C20.7269 14.0625 21.1243 13.8979 21.4174 13.6049C21.7104 13.3118 21.875 12.9144 21.875 12.5C21.875 12.0856 21.7104 11.6882 21.4174 11.3951C21.1243 11.1021 20.7269 10.9375 20.3125 10.9375C19.8981 10.9375 19.5007 11.1021 19.2076 11.3951C18.9146 11.6882 18.75 12.0856 18.75 12.5C18.75 12.9144 18.9146 13.3118 19.2076 13.6049C19.5007 13.8979 19.8981 14.0625 20.3125 14.0625ZM19.5312 7.03125C19.5312 6.61685 19.3666 6.21942 19.0736 5.9264C18.7806 5.63337 18.3832 5.46875 17.9688 5.46875C17.5543 5.46875 17.1569 5.63337 16.8639 5.9264C16.5709 6.21942 16.4062 6.61685 16.4062 7.03125C16.4062 7.44565 16.5709 7.84308 16.8639 8.1361C17.1569 8.42913 17.5543 8.59375 17.9688 8.59375C18.3832 8.59375 18.7806 8.42913 19.0736 8.1361C19.3666 7.84308 19.5312 7.44565 19.5312 7.03125Z" fill="#21CD71"/>
</g>
<defs>
<clipPath id="clip0_155_146">
<rect width="25" height="25" fill="white"/>
</clipPath>
</defs>
</svg>
